# xmcd CD database file
#
# Track frame offsets:
#	150
#	38261
#	61585
#	101357
#	136779
#	164976
#	209817
#	237164
#
# Disc length: 3768 seconds
#
# Revision: 0
# Processed by: cddbd v1.5.2PL0 Copyright (c) Steve Scherf et al.
# Submitted via: CDex 1.51
#
DISCID=650eb608
DTITLE=Asaf Sirkis Trio - Shepherd's Stories
DYEAR=2013
DGENRE=Jazz
TTITLE0=1801
TTITLE1=Eyes Tell
TTITLE2=Traveller
TTITLE3=Meditation
TTITLE4=Dream Sister
TTITLE5=Together
TTITLE6=Shepherd's Stories
TTITLE7=Two Part Melody
EXTD=YEAR: 2013
EXTT0=
EXTT1=
EXTT2=
EXTT3=
EXTT4=
EXTT5=
EXTT6=
EXTT7=
PLAYORDER=
